# xmcd CD database file
#
# Track frame offsets:
#	150
#	23290
#	45385
#	65167
#	83014
#	104394
#	125515
#	149444
#	168770
#	189026
#	212234
#	232918
#	254815
#
# Disc length: 3629 seconds
#
# Revision: 2
# Processed by: cddbd v1.5.2PL0 Copyright (c) Steve Scherf et al.
# Submitted via: CDex 1.70beta2
#
DISCID=a90e2b0d
DTITLE=MAYSA - Smooth Sailing   (2004)
DYEAR=2004
DGENRE=Jazz
TTITLE0=Hypnotic Love
TTITLE1=Smooth Sailing
TTITLE2=Soul Child
TTITLE3=Scat World
TTITLE4=Where Do You Go?
TTITLE5=So Very Hot
TTITLE6=All Day Long
TTITLE7=It's Time For Love
TTITLE8=Where Have You Been?
TTITLE9=One More Chance
TTITLE10=Unexpectedly
TTITLE11=Angel
TTITLE12=Give Love A Chance
EXTD=YEAR: 2004
EXTT0=
EXTT1=
EXTT2=
EXTT3=
EXTT4=
EXTT5=
EXTT6=
EXTT7=
EXTT8=
EXTT9=
EXTT10=
EXTT11=
EXTT12=
PLAYORDER=
